<svg width="185" height="149" viewBox="0 0 185 149" fill="none" xmlns="http://www.w3.org/2000/svg">
<mask id="mask0_169_111" style="mask-type:luminance" maskUnits="userSpaceOnUse" x="81" y="32" width="104" height="117">
<path d="M81.7412 32.4756H184.675V149H81.7412V32.4756Z" fill="white"/>
</mask>
<g mask="url(#mask0_169_111)">
<path d="M133.256 32.8579C104.858 32.8579 81.8369 56.0262 81.8369 84.6062C81.8369 84.8168 81.8389 85.0233 81.841 85.2339L81.8369 146.125C81.8369 148.542 84.621 149.875 86.4839 148.354L108.783 130.129C116.06 134.102 124.398 136.357 133.256 136.357C161.652 136.357 184.676 113.186 184.676 84.6062C184.676 56.0262 161.652 32.8579 133.256 32.8579Z" fill="url(#paint0_linear_169_111)"/>
</g>
<mask id="mask1_169_111" style="mask-type:luminance" maskUnits="userSpaceOnUse" x="0" y="0" width="104" height="117">
<path d="M0 0H103.087V116.69H0V0Z" fill="white"/>
</mask>
<g mask="url(#mask1_169_111)">
<path d="M102.835 52.5532C102.837 52.3447 102.839 52.1362 102.839 51.9276C102.839 23.3476 79.8175 0.177246 51.4193 0.177246C23.0211 0.177246 0 23.3476 0 51.9276C0 80.5077 23.0211 103.676 51.4193 103.676C60.278 103.676 68.616 101.421 75.8925 97.4504L98.1917 115.673C100.055 117.194 102.839 115.861 102.839 113.445L102.835 52.5532Z" fill="url(#paint1_linear_169_111)"/>
</g>
<path d="M53.7744 88.3689H49.0644C47.5554 88.3689 46.3291 87.1361 46.3291 85.615V83.0307C46.3291 81.5116 47.5554 80.2788 49.0644 80.2788H53.7744C55.2833 80.2788 56.5117 81.5116 56.5117 83.0307V85.615C56.5117 87.1361 55.2833 88.3689 53.7744 88.3689Z" fill="black"/>
<path d="M54.7343 94.5353H48.1045C47.1243 94.5353 46.3291 93.7359 46.3291 92.7505V92.7137C46.3291 91.7262 47.1243 90.9268 48.1045 90.9268H54.7343C55.7145 90.9268 56.5117 91.7262 56.5117 92.7137V92.7505C56.5117 93.7359 55.7145 94.5353 54.7343 94.5353Z" fill="black"/>
<path d="M69.647 58.3208V64.0679C69.647 74.0757 61.5835 82.1903 51.6368 82.1903H51.2728C41.2875 82.1903 33.1914 74.043 33.1914 63.9922V58.3208C33.1914 57.3496 32.4105 56.5625 31.4465 56.5625H31.4099C30.446 56.5625 29.665 57.3496 29.665 58.3208V64.1374C29.665 76.0691 39.2741 85.7416 51.1304 85.7416H51.5656C63.4992 85.7416 73.1754 76.0036 73.1754 63.9922V58.3208C73.1754 57.3496 72.3945 56.5625 71.4285 56.5625H71.3919C70.4279 56.5625 69.647 57.3496 69.647 58.3208Z" fill="black"/>
<path d="M48.4785 83.0947V103.593C49.4526 103.648 50.4329 103.677 51.4192 103.677C52.4076 103.677 53.3858 103.648 54.3599 103.593V83.0947H48.4785Z" fill="black"/>
<path d="M61.5732 27.5763V44.1245C61.5732 45.1733 60.7292 46.0218 59.688 46.0218H59.6493C58.6101 46.0218 57.7661 45.1713 57.7661 44.1245V24.7242C57.7661 24.3603 57.5526 24.0332 57.2211 23.8921C56.3222 23.5057 55.3745 23.2113 54.3943 23.015C53.8371 22.9046 53.3205 23.3319 53.3205 23.9003C53.3205 28.204 53.3226 44.1245 53.3226 44.1245C53.3226 45.1733 52.4786 46.0218 51.4394 46.0218H51.4007C50.3595 46.0218 49.5155 45.1733 49.5155 44.1245C49.5155 44.1245 49.5176 28.204 49.5176 23.9003C49.5176 23.3319 49.001 22.9046 48.4438 23.015C47.4615 23.2113 46.5179 23.5057 45.619 23.8921C45.2875 24.0332 45.0699 24.3603 45.0699 24.7242V44.1245C45.0699 45.1733 44.228 46.0218 43.1888 46.0218H43.1501C42.1089 46.0218 41.2649 45.1713 41.2649 44.1245V27.5763C41.2649 27.2798 40.907 27.1388 40.7077 27.3534C38.2958 29.954 36.8193 33.444 36.8193 37.2836V63.0504C36.8193 71.0853 43.2884 77.597 51.2726 77.597H51.5655C59.5476 77.597 66.0188 71.0853 66.0188 63.0504V37.2836C66.0188 33.444 64.5423 29.954 62.1304 27.3534C61.9311 27.1388 61.5732 27.2798 61.5732 27.5763Z" fill="black"/>
<path d="M139.197 90.9268C139.197 87.625 136.537 84.9487 133.256 84.9487C129.976 84.9487 127.316 87.625 127.316 90.9268C127.316 94.2287 129.976 96.905 133.256 96.905C136.537 96.905 139.197 94.2287 139.197 90.9268Z" fill="white"/>
<path d="M158.252 90.9268C158.252 87.625 155.592 84.9487 152.311 84.9487C149.031 84.9487 146.371 87.625 146.371 90.9268C146.371 94.2287 149.031 96.905 152.311 96.905C155.592 96.905 158.252 94.2287 158.252 90.9268Z" fill="white"/>
<path d="M120.139 90.9268C120.139 87.625 117.479 84.9487 114.199 84.9487C110.919 84.9487 108.261 87.625 108.261 90.9268C108.261 94.2287 110.919 96.905 114.199 96.905C117.479 96.905 120.139 94.2287 120.139 90.9268Z" fill="white"/>
<defs>
<linearGradient id="paint0_linear_169_111" x1="133.256" y1="32.8579" x2="133.256" y2="149" gradientUnits="userSpaceOnUse">
<stop stop-color="#174B8A"/>
<stop offset="1" stop-color="#0C1219"/>
</linearGradient>
<linearGradient id="paint1_linear_169_111" x1="51.4193" y1="0.177246" x2="48.8576" y2="106.215" gradientUnits="userSpaceOnUse">
<stop stop-color="#FCD683"/>
<stop offset="1" stop-color="#1192EE"/>
</linearGradient>
</defs>
</svg>
