<svg width="46" height="45" viewBox="0 0 46 45" fill="none" xmlns="http://www.w3.org/2000/svg">
<circle cx="23.1924" cy="22.5" r="22.5" fill="#1473E6"/>
<path d="M12.6784 18.7984L11.541 16.279L9 15.1518L11.541 13.9827L12.6784 11.4734L13.8374 13.9827L16.3567 15.1518L13.8374 16.279L12.6784 18.7984ZM31.4507 13.7882L30.7075 12.1215L29.0725 11.41L30.7075 10.6569L31.4507 9L32.1721 10.6569L33.8607 11.41L32.1721 12.1215L31.4507 13.7882ZM34.6217 20.0668L33.9003 18.4001L32.2118 17.6886L33.9003 16.9354L34.6217 15.2786L35.365 16.9354L37 17.6886L35.365 18.4001L34.6217 20.0668ZM23.0252 25.5844C21.8774 25.5844 20.923 25.1735 20.1619 24.3516C19.4009 23.5298 19.0204 22.5455 19.0204 21.3986V13.598C19.0204 12.5075 19.4062 11.5742 20.1778 10.7982C20.9494 10.0222 21.8954 9.6342 23.0159 9.6342C24.1363 9.6342 25.0876 10.0222 25.8698 10.7982C26.6519 11.5742 27.043 12.5075 27.043 13.598V21.3986C27.043 22.5455 26.6603 23.5298 25.8949 24.3516C25.1295 25.1735 24.173 25.5844 23.0252 25.5844ZM21.7792 35.5096V31.0702C19.2635 30.8165 17.1812 29.7753 15.5323 27.9465C13.8834 26.1176 13.0589 23.935 13.0589 21.3986H15.5957C15.5957 23.4281 16.3226 25.151 17.7763 26.5674C19.23 27.9838 20.9827 28.692 23.0345 28.692C25.0862 28.692 26.8327 27.9823 28.274 26.5628C29.7154 25.1435 30.436 23.4221 30.436 21.3986H32.9728C32.9728 23.9352 32.1484 26.1179 30.4994 27.9466C28.8505 29.7753 26.7788 30.8155 24.2843 31.067V35.5096H21.7792ZM23.0192 22.6988C23.3468 22.6988 23.6131 22.5713 23.8181 22.3163C24.0232 22.0613 24.1257 21.7554 24.1257 21.3986V13.6021C24.1257 13.3119 24.0126 13.0589 23.7864 12.8433C23.5602 12.6276 23.3034 12.5198 23.0159 12.5198C22.7284 12.5198 22.4715 12.6276 22.2453 12.8433C22.0191 13.0589 21.906 13.3119 21.906 13.6021V21.3986C21.906 21.7554 22.0096 22.0613 22.2169 22.3163C22.4242 22.5713 22.6916 22.6988 23.0192 22.6988Z" fill="white"/>
</svg>
