<svg width="31" height="31" viewBox="0 0 31 31" fill="none" xmlns="http://www.w3.org/2000/svg">
<circle cx="15.3846" cy="15.3846" r="15.3846" fill="#1473E6"/>
<path d="M20.3191 24.5831C19.4611 24.5831 18.7307 24.3386 18.1279 23.8497C17.525 23.3607 17.0896 22.788 16.8217 22.1315C16.5395 21.417 16.2681 20.8767 16.0072 20.5105C15.7464 20.1444 15.2744 19.6732 14.5912 19.0972C13.7204 18.4408 13.0773 17.6939 12.662 16.8566C12.2467 16.0193 12.0391 14.9978 12.0391 13.7921C12.0391 12.1058 12.5783 10.7163 13.6567 9.62364C14.7352 8.53098 16.1178 7.98465 17.8046 7.98465C19.4512 7.98465 20.8311 8.53768 21.9442 9.64374C23.0573 10.7498 23.6473 12.1527 23.7143 13.8524H21.8655C21.7986 12.6735 21.3977 11.7089 20.663 10.9587C19.9283 10.2085 18.9805 9.83339 17.8196 9.83339C16.672 9.83339 15.7299 10.2093 14.9931 10.961C14.2562 11.7127 13.8878 12.6564 13.8878 13.7921C13.8878 14.7165 14.0687 15.5035 14.4304 16.1533C14.7921 16.803 15.4049 17.4494 16.2689 18.0924C16.758 18.4541 17.1533 18.8594 17.4547 19.3082C17.7561 19.757 18.0609 20.3161 18.369 20.9857C18.5968 21.562 18.868 21.9976 19.1829 22.2923C19.4977 22.587 19.8761 22.7344 20.3182 22.7344C20.6933 22.7344 21.0216 22.5837 21.3029 22.2822C21.5842 21.9808 21.7651 21.5756 21.8455 21.0665H23.6942C23.6272 22.165 23.2737 23.0258 22.6337 23.6487C21.9937 24.2716 21.2222 24.5831 20.3191 24.5831ZM10.4918 20.4636C9.64779 19.4991 9.0215 18.4408 8.6129 17.2886C8.2043 16.1365 8 14.9442 8 13.7117C8 12.5194 8.20095 11.3405 8.60285 10.175C9.00475 9.0095 9.63439 7.95116 10.4918 7L11.818 8.24589C11.0946 9.0229 10.5822 9.88698 10.2808 10.8381C9.97936 11.7893 9.82864 12.7472 9.82864 13.7119C9.82864 14.6629 9.98606 15.6107 10.3009 16.5552C10.6157 17.4996 11.1281 18.3738 11.8381 19.1776L10.4918 20.4636ZM17.8064 15.6408C17.2839 15.6408 16.8451 15.4633 16.4901 15.1083C16.1351 14.7533 15.9576 14.3146 15.9576 13.7921C15.9576 13.2562 16.1351 12.8075 16.4901 12.4457C16.8451 12.084 17.2839 11.9032 17.8064 11.9032C18.3154 11.9032 18.7575 12.084 19.1326 12.4457C19.5077 12.8075 19.6953 13.2562 19.6953 13.7921C19.6953 14.3146 19.5077 14.7533 19.1326 15.1083C18.7575 15.4633 18.3154 15.6408 17.8064 15.6408Z" fill="white"/>
</svg>
