<svg width="77" height="64" viewBox="0 0 77 64" fill="none" xmlns="http://www.w3.org/2000/svg">
<path d="M55.0509 16C43.4248 16 34 25.485 34 37.1856C34 37.2718 34.0008 37.3563 34.0017 37.4425L34 62.3712C34 63.3605 35.1398 63.9063 35.9024 63.2835L45.0316 55.8224C48.0106 57.4487 51.4242 58.372 55.0509 58.372C66.6761 58.372 76.1017 48.8861 76.1017 37.1856C76.1017 25.485 66.6761 16 55.0509 16Z" fill="url(#paint0_linear_346_83)"/>
<mask id="mask0_346_83" style="mask-type:luminance" maskUnits="userSpaceOnUse" x="0" y="0" width="43" height="48">
<path d="M0 0H42.2033V47.7724H0V0Z" fill="white"/>
</mask>
<g mask="url(#mask0_346_83)">
<path d="M42.1001 21.515C42.1009 21.4297 42.1017 21.3443 42.1017 21.2589C42.1017 9.55835 32.677 0.0725098 21.0509 0.0725098C9.42477 0.0725098 0 9.55835 0 21.2589C0 32.9595 9.42477 42.4445 21.0509 42.4445C24.6776 42.4445 28.0911 41.5213 31.0701 39.8958L40.1993 47.3561C40.9619 47.9788 42.1017 47.4331 42.1017 46.4437L42.1001 21.515Z" fill="#1192EE"/>
</g>
<path d="M22.0149 36.178H20.0867C19.4689 36.178 18.9669 35.6733 18.9669 35.0506V33.9926C18.9669 33.3707 19.4689 32.866 20.0867 32.866H22.0149C22.6327 32.866 23.1356 33.3707 23.1356 33.9926V35.0506C23.1356 35.6733 22.6327 36.178 22.0149 36.178Z" fill="white"/>
<path d="M22.4079 38.7024H19.6937C19.2924 38.7024 18.9669 38.3751 18.9669 37.9717V37.9566C18.9669 37.5524 19.2924 37.2251 19.6937 37.2251H22.4079C22.8092 37.2251 23.1356 37.5524 23.1356 37.9566V37.9717C23.1356 38.3751 22.8092 38.7024 22.4079 38.7024Z" fill="white"/>
<path d="M28.5132 23.8763V26.2292C28.5132 30.3263 25.2121 33.6484 21.1399 33.6484H20.9909C16.9029 33.6484 13.5885 30.3129 13.5885 26.1982V23.8763C13.5885 23.4787 13.2688 23.1565 12.8741 23.1565H12.8591C12.4645 23.1565 12.1448 23.4787 12.1448 23.8763V26.2576C12.1448 31.1424 16.0787 35.1023 20.9326 35.1023H21.1108C25.9963 35.1023 29.9577 31.1156 29.9577 26.1982V23.8763C29.9577 23.4787 29.638 23.1565 29.2426 23.1565H29.2276C28.8329 23.1565 28.5132 23.4787 28.5132 23.8763Z" fill="white"/>
<path d="M19.8469 34.0188V42.4107C20.2457 42.4333 20.647 42.445 21.0508 42.445C21.4555 42.445 21.8559 42.4333 22.2547 42.4107V34.0188H19.8469Z" fill="white"/>
<path d="M25.2079 11.2896V18.0643C25.2079 18.4937 24.8624 18.8411 24.4361 18.8411H24.4203C23.9948 18.8411 23.6493 18.4929 23.6493 18.0643V10.1219C23.6493 9.97294 23.5619 9.83902 23.4262 9.78126C23.0582 9.62307 22.6702 9.50254 22.2689 9.42219C22.0408 9.37699 21.8293 9.55192 21.8293 9.78461C21.8293 11.5465 21.8301 18.0643 21.8301 18.0643C21.8301 18.4937 21.4846 18.8411 21.0592 18.8411H21.0434C20.6171 18.8411 20.2716 18.4937 20.2716 18.0643C20.2716 18.0643 20.2724 11.5465 20.2724 9.78461C20.2724 9.55192 20.0609 9.37699 19.8328 9.42219C19.4307 9.50254 19.0443 9.62307 18.6764 9.78126C18.5406 9.83902 18.4516 9.97294 18.4516 10.1219V18.0643C18.4516 18.4937 18.1069 18.8411 17.6814 18.8411H17.6656C17.2393 18.8411 16.8938 18.4929 16.8938 18.0643V11.2896C16.8938 11.1682 16.7473 11.1104 16.6657 11.1983C15.6782 12.263 15.0738 13.6918 15.0738 15.2637V25.8125C15.0738 29.102 17.7222 31.7678 20.9909 31.7678H21.1108C24.3787 31.7678 27.0279 29.102 27.0279 25.8125V15.2637C27.0279 13.6918 26.4235 12.263 25.436 11.1983C25.3544 11.1104 25.2079 11.1682 25.2079 11.2896Z" fill="#F7F7F7"/>
<path d="M56.9865 37.225C56.9865 35.8732 55.8975 34.7776 54.5546 34.7776C53.2116 34.7776 52.1226 35.8732 52.1226 37.225C52.1226 38.5768 53.2116 39.6724 54.5546 39.6724C55.8975 39.6724 56.9865 38.5768 56.9865 37.225Z" fill="white"/>
<path d="M64.7878 37.225C64.7878 35.8732 63.6988 34.7776 62.3558 34.7776C61.0129 34.7776 59.9239 35.8732 59.9239 37.225C59.9239 38.5768 61.0129 39.6724 62.3558 39.6724C63.6988 39.6724 64.7878 38.5768 64.7878 37.225Z" fill="white"/>
<path d="M49.1846 37.225C49.1846 35.8732 48.0956 34.7776 46.7527 34.7776C45.4097 34.7776 44.3215 35.8732 44.3215 37.225C44.3215 38.5768 45.4097 39.6724 46.7527 39.6724C48.0956 39.6724 49.1846 38.5768 49.1846 37.225Z" fill="#FCFCFC"/>
<defs>
<linearGradient id="paint0_linear_346_83" x1="55.0509" y1="16" x2="55.0509" y2="63.5482" gradientUnits="userSpaceOnUse">
<stop stop-color="#115BCB"/>
<stop offset="1" stop-color="#FCD683"/>
</linearGradient>
</defs>
</svg>
